<svg xmlns="http://www.w3.org/2000/svg" viewBox="0 0 1002.24 333.36"><path d="M352.8,85.88v24.48H38.88V85.88H129.6q-2.16-4.32-5.4-10.08t-6.48-11q-3.24-5.22-6.12-9.36t-4.32-5.94L131,35.84q2.16,2.52,6.12,8.28t8.1,12.42Q149.4,63.2,153,69.32t5,9l-14,7.56h81.72q7.56-11.16,15.84-25A263.92,263.92,0,0,0,256,33.32l26.28,11.52q-5,8.28-11.7,19.44T257.4,85.88ZM65.88,142H190.8V321a101.7,101.7,0,0,1-1.44,18.9,26,26,0,0,1-5.4,12.06,22.69,22.69,0,0,1-10.8,6.84,77,77,0,0,1-17.64,2.88l-19.44,1.44L127.8,338.6l23.76-1.8q8.28-.72,10.8-5.94t2.52-15.3V285.32H92.16v78.12H65.88Zm26.28,24.84v35.28h72.72V166.88Zm72.72,94.68V225.92H92.16v35.64Zm62.64-112.68,24.84,1.44V302.24H227.52Zm67.32-14.4,26.28,1.44V322a91.12,91.12,0,0,1-1.44,17.82,23.32,23.32,0,0,1-5.4,11.34,22.92,22.92,0,0,1-11,6.3,90.28,90.28,0,0,1-18.18,2.7l-23,1.8-9.36-25.56,29.16-2.52q8.28-.72,10.62-5.76T294.84,313Z" transform="translate(-38.88 -33.32)"/><path d="M500,301.16l1.08,11.52q-10.44,3.24-25.38,6.84t-31,7.2q-16,3.6-30.78,6.84t-24.84,5L382,313.76q10.8-1.8,25.38-4.68t30.42-6.48a369.65,369.65,0,0,0,9.72-36.18q4.68-21.06,8.82-43.56t7-43.38q2.88-20.88,4-35.28l24.12,4q-1.44,13.68-4.32,32.76t-6.66,39.6Q476.64,241,472.14,261t-8.82,35.82q10.44-2.88,19.44-5.22t16.2-4.5Zm-2.88-177.48H393.84V99.56H439.2Q437.76,92,436,84.26t-3.6-14.94q-1.8-7.2-3.6-13.14t-2.88-9.9l23.76-4q1.44,4,3.24,10.62t3.6,14.58q1.8,7.92,3.78,16.2t3.42,15.84h33.48ZM421.56,276q-1.8-13-4.68-29.52t-6.12-33.66q-3.24-17.1-6.66-33.12t-5.94-28.26l22.32-4.68Q423,159,426.24,175t6.3,33.12q3.06,17.1,5.94,33.48t4.68,29.7Zm186.12-88.2q-2.52,7.92-5.76,16.92t-6.48,16.92h94V332.48q0,9.72-2,15.66a18.91,18.91,0,0,1-6.48,9.36,30.11,30.11,0,0,1-11.88,5,161.76,161.76,0,0,1-18.18,2.7l-14,1.44L630,345.44,646.56,344a59.26,59.26,0,0,0,9.9-1.26,16.09,16.09,0,0,0,5.94-2.52,8,8,0,0,0,2.88-4.86,41.41,41.41,0,0,0,.72-8.64V244.28H632.52v96.84h-21.6V244.28H581.4V347.6H559.8V244.28H529.92V364.52H507.24V221.6h61.2a143.67,143.67,0,0,0,6.84-16.38q3.24-9.18,5.76-17.46H499.32v-22H705.24v22Zm74.52-53.28H511.92V60.32l23,1.08v51.12h49.68V41.24l23.76,1.08v70.2h50.4V60.32l23.4,1.08Z" transform="translate(-38.88 -33.32)"/><path d="M1041.12,61.4V315.2q0,13.68-2.16,22.32a27.44,27.44,0,0,1-8.1,14q-5.94,5.4-16.38,7.74a159.25,159.25,0,0,1-27,3.06l-21.6,1.44-9-26.64,26.28-1.44a105.83,105.83,0,0,0,16.38-1.62,21.62,21.62,0,0,0,9.9-4.32,15.39,15.39,0,0,0,4.86-8.46,61.7,61.7,0,0,0,1.26-13.68V86.6H793.8V363.08H768.6V61.4ZM886,286q-3.6-11.16-9-24.48t-11.88-28.08q-11.54,23.4-23.94,44.64t-25,40l-19.8-14.76q14.76-21.6,28.8-46.26t26.64-52q-10.8-22.68-22-42.84t-20.16-33.84l19.08-11.52q7.56,11.16,16.74,27T864,177.68q7.56-17.28,14.22-35.1t12.42-35.82L914,115q-7.92,23.4-16.92,46.08T878,205.76q9,18.36,16.38,35.1t12.06,29.34Zm106.2,24.48a370.7,370.7,0,0,0-14-34.92q-9-19.8-19.44-40.68a711.38,711.38,0,0,1-51.84,88.56L887,309.08q16.2-23.76,30.6-49.32t27-52.2q-10.08-19.08-19.8-35.82t-18-28.26l19.08-13.68q6.83,9.36,14.76,22.5t16.2,28.26q15.12-35.64,25.92-70.2l23,8.28q-7.22,23-15.66,45.18t-18.54,44.1q12.6,23.76,23.58,47t17.1,40.14Z" transform="translate(-38.88 -33.32)"/></svg>